<svg stroke="rgb(255, 226, 52)" fill="#000000" xmlns="http://www.w3.org/2000/svg"  viewBox="0 0 48 48" width="144px" height="144px"><path d="M 24 3 C 17.390343 3 12 8.390343 12 15 L 12 17.5 A 1.50015 1.50015 0 0 0 12.800781 18.826172 C 12.33748 19.630873 12 20.511679 12 21.5 L 12 22.5 A 1.50015 1.50015 0 0 0 10.476562 20.978516 A 1.50015 1.50015 0 0 0 9 22.5 L 9 40 L 8.5 40 L 7.5 40 A 1.50015 1.50015 0 1 0 7.5 43 L 8.5 43 L 10.5 43 L 13.5 43 A 1.50015 1.50015 0 1 0 13.5 40 L 12 40 L 12 31.5 C 12 34.519774 14.480226 37 17.5 37 L 19.5 37 A 1.50015 1.50015 0 1 0 19.5 40 L 28.5 40 A 1.50015 1.50015 0 1 0 28.5 37 L 30.5 37 C 33.519774 37 36 34.519774 36 31.5 L 36 40 L 34.5 40 A 1.50015 1.50015 0 1 0 34.5 43 L 37.5 43 L 39.5 43 L 40.5 43 A 1.50015 1.50015 0 1 0 40.5 40 L 39.5 40 L 39 40 L 39 22.5 A 1.50015 1.50015 0 0 0 37.476562 20.978516 A 1.50015 1.50015 0 0 0 36 22.5 L 36 21.5 C 36 20.511679 35.66252 19.630873 35.199219 18.826172 A 1.50015 1.50015 0 0 0 36 17.5 L 36 15 C 36 8.390343 30.609657 3 24 3 z M 24 6 C 28.988343 6 33 10.011657 33 15 L 33 16 L 30.5 16 L 23 16 L 23 12.5 A 1.50015 1.50015 0 0 0 21.476562 10.978516 A 1.50015 1.50015 0 0 0 20 12.5 L 20 16 L 17.5 16 L 15 16 L 15 15 C 15 10.011657 19.011657 6 24 6 z M 26.5 11 A 1.5 1.5 0 0 0 26.5 14 A 1.5 1.5 0 0 0 26.5 11 z M 17.5 19 L 30.5 19 C 31.898226 19 33 20.101774 33 21.5 L 33 31.5 C 33 32.898226 31.898226 34 30.5 34 L 25.5 34 L 25.5 29.5 A 1.50015 1.50015 0 0 0 23.976562 27.978516 A 1.50015 1.50015 0 0 0 22.5 29.5 L 22.5 34 L 17.5 34 C 16.101774 34 15 32.898226 15 31.5 L 15 21.5 C 15 20.101774 16.101774 19 17.5 19 z M 20.5 21 A 1.50015 1.50015 0 1 0 20.5 24 L 27.5 24 A 1.50015 1.50015 0 1 0 27.5 21 L 20.5 21 z"/></svg>